<?xml version="1.0" encoding="UTF-8"?>
<!-- Generator: Adobe Illustrator 18.0.0, SVG Export Plug-In . SVG Version: 6.00 Build 0)  -->
<!DOCTYPE svg PUBLIC "-//W3C//DTD SVG 1.1//EN" "http://www.w3.org/Graphics/SVG/1.1/DTD/svg11.dtd">
<svg version="1.1" xmlns="http://www.w3.org/2000/svg" xmlns:xlink="http://www.w3.org/1999/xlink" x="0px" y="0px" viewBox="0 0 88 88" enable-background="new 0 0 88 88" xml:space="preserve">
<g id="Background" display="none">
	<rect x="-2286" y="-522" display="inline" fill="#808080" width="150" height="70"/>
	<rect x="-2136" y="-522" display="inline" fill="#666666" width="150" height="70"/>
	<rect x="-1986" y="-522" display="inline" fill="#808080" width="150" height="70"/>
	<rect x="-1836" y="-522" display="inline" fill="#666666" width="150" height="70"/>
	<rect x="-1686" y="-522" display="inline" fill="#808080" width="150" height="70"/>
	<rect x="-2286" y="-662" display="inline" fill="#808080" width="150" height="70"/>
	<rect x="-2136" y="-662" display="inline" fill="#666666" width="150" height="70"/>
	<rect x="-1986" y="-662" display="inline" fill="#808080" width="150" height="70"/>
	<rect x="-1836" y="-662" display="inline" fill="#666666" width="150" height="70"/>
	<rect x="-1686" y="-662" display="inline" fill="#808080" width="150" height="70"/>
	<rect x="-2286" y="-592" display="inline" fill="#666666" width="150" height="70"/>
	<rect x="-2136" y="-592" display="inline" fill="#808080" width="150" height="70"/>
	<rect x="-1986" y="-592" display="inline" fill="#666666" width="150" height="70"/>
	<rect x="-1836" y="-592" display="inline" fill="#808080" width="150" height="70"/>
	<rect x="-1686" y="-592" display="inline" fill="#666666" width="150" height="70"/>
</g>
<g id="Content">
	<rect x="-4123" y="1901" fill="#FC5EA6" width="0" height="3"/>
	<g id="Sprout_Navigation">
	</g>
	<g>
		<circle fill="#FFFFFF" stroke="#EEEEEE" stroke-width="2" stroke-miterlimit="10" cx="43.8" cy="44" r="42.8"/>
		<g>
			<g>
				<path fill="#77A4CA" d="M49,49.8v-1.6c1-1.4,4.3-5.5,4.3-10.3c0-7.4-3.3-11.5-8.3-12.1v-0.1c0,0-0.4,0-0.5,0c-0.2,0-0.4,0-0.6,0      c-0.2,0-0.4,0-0.6,0c-0.1,0-0.3,0-0.3,0v0.1c-5,0.5-8.3,4.7-8.3,12.1c0,4.8,2.3,8.9,4.3,10.3v1.6C39,53,25,53,25,60.2V62h38      v-1.8C63,53,49,53,49,49.8z"/>
			</g>
			<g>
				<g>
					<path fill="#1D67A7" d="M63,73.5c-6.1,0-11.2-5-11.2-11.2c0-6.1,5-11.2,11.2-11.2c6.2,0,11.2,5,11.2,11.2       C74.1,68.5,69.1,73.5,63,73.5z"/>
					<path fill="#FFFFFF" d="M63,52c5.7,0,10.4,4.7,10.4,10.4c0,5.7-4.7,10.4-10.4,10.4c-5.7,0-10.4-4.7-10.4-10.4       C52.6,56.6,57.2,52,63,52 M63,50.5c-6.6,0-11.9,5.3-11.9,11.9c0,6.6,5.3,11.9,11.9,11.9c6.6,0,11.9-5.3,11.9-11.9       C74.9,55.8,69.5,50.5,63,50.5L63,50.5z"/>
				</g>
				<g>
					<path fill="#FFFFFF" d="M57.8,58.9c1,0.8,2,1.6,2.9,2.5c0.7-1.1,1.4-2.1,2.3-3.1c0.9,1,1.6,2,2.3,3.1c0.9-0.9,1.8-1.7,2.9-2.5       c-0.1,0.6-0.2,1.2-0.4,1.8c-0.1,0.6-0.2,1.2-0.4,1.8c-0.1,0.6-0.2,1.2-0.4,1.8c-0.1,0.6-0.2,1.2-0.4,1.8       c-0.6-0.1-1.2-0.2-1.8-0.3c-0.6-0.1-1.2-0.1-1.8-0.1c-0.6,0-1.2,0-1.8,0.1c-0.6,0.1-1.2,0.2-1.8,0.3c-0.1-0.6-0.2-1.2-0.4-1.8       c-0.1-0.6-0.2-1.2-0.4-1.8c-0.1-0.6-0.2-1.2-0.4-1.8C58.1,60.1,57.9,59.5,57.8,58.9z"/>
				</g>
			</g>
		</g>
	</g>
</g>
</svg>