<?xml version="1.0" encoding="UTF-8"?>
<svg id="Layer_1" data-name="Layer 1" xmlns="http://www.w3.org/2000/svg" viewBox="0 0 922.45 922.44">
  <path d="m461.23,0C206.5,0,0,206.49,0,461.22s206.5,461.22,461.23,461.22,461.22-206.5,461.22-461.22S715.95,0,461.23,0Zm317.2,578.77c-15.23,36.36-37.21,68.5-65.12,96.4-27.06,27.07-59.2,49.05-95.56,64.28-37.21,16.06-76.96,23.67-117.55,23.67H236.35c-37.21,0-67.65-30.44-67.65-67.65s30.44-67.65,67.65-67.65h263.85c92.18,0,166.6-74.42,166.6-166.6s-74.42-166.6-166.6-166.6h-196.2v166.6c0,37.21-30.44,67.65-67.65,67.65s-67.65-30.44-67.65-67.65v-234.25c0-37.21,30.44-67.66,67.65-67.66h263.85c40.59,0,80.34,8.46,117.55,23.68,36.36,15.22,68.5,37.21,95.56,65.12,27.91,27.9,49.89,60.04,65.12,95.56,16.06,37.21,23.67,76.96,23.67,117.55s-7.61,80.34-23.67,117.55Zm-386.86-13.27v-208.56l187.66,104.28-187.66,104.28Z" style="fill: #2b1567;"/>
</svg>