<?xml version="1.0" encoding="UTF-8"?>
<svg id="Layer_1" data-name="Layer 1" xmlns="http://www.w3.org/2000/svg" viewBox="0 0 922.45 922.45">
  <path d="m461.22,0C206.5,0,0,206.5,0,461.22s206.5,461.23,461.22,461.23,461.23-206.5,461.23-461.23S715.95,0,461.22,0Zm315.2,578.77c-15.22,36.37-37.21,68.5-65.11,96.41-27.06,27.06-59.2,49.05-95.56,64.27-37.21,16.07-76.96,23.68-117.55,23.68H234.35c-37.21,0-67.66-30.45-67.66-67.65s30.45-67.66,67.66-67.66h263.85c92.18,0,166.59-74.42,166.59-166.6s-74.41-166.59-166.59-166.59h-196.2v166.59c0,37.21-30.44,67.66-67.65,67.66s-67.66-30.45-67.66-67.66v-234.25c0-37.21,30.45-67.65,67.66-67.65h263.85c40.59,0,80.34,8.45,117.55,23.68,36.36,15.22,68.5,37.21,95.56,65.11,27.9,27.91,49.89,60.05,65.11,95.57,16.07,37.2,23.68,76.95,23.68,117.54s-7.61,80.34-23.68,117.55Zm-386.85-13.27v-208.55l187.66,104.28-187.66,104.27Z" style="fill: #fff;"/>
  <g>
    <path d="m800.1,461.22c0,40.6-7.61,80.34-23.68,117.55-15.22,36.37-37.21,68.5-65.11,96.41-27.06,27.06-59.2,49.05-95.56,64.27-37.21,16.07-76.96,23.68-117.55,23.68H234.35c-37.21,0-67.66-30.45-67.66-67.65s30.45-67.66,67.66-67.66h263.85c92.18,0,166.59-74.42,166.59-166.6s-74.41-166.59-166.59-166.59h-196.2v166.59c0,37.21-30.44,67.66-67.65,67.66s-67.66-30.45-67.66-67.66v-234.25c0-37.21,30.45-67.65,67.66-67.65h263.85c40.59,0,80.34,8.45,117.55,23.68,36.36,15.22,68.5,37.21,95.56,65.11,27.9,27.91,49.89,60.05,65.11,95.57,16.07,37.2,23.68,76.95,23.68,117.54Z" style="fill: #17a2b8;"/>
    <polygon points="577.23 461.23 389.57 565.5 389.57 356.95 577.23 461.23" style="fill: #17a2b8;"/>
  </g>
</svg>